G04 #@! TF.GenerationSoftware,KiCad,Pcbnew,(5.1.5)-3*
G04 #@! TF.CreationDate,2021-05-07T14:02:41+02:00*
G04 #@! TF.ProjectId,LeachAmp_kicad,4c656163-6841-46d7-905f-6b696361642e,rev?*
G04 #@! TF.SameCoordinates,Original*
G04 #@! TF.FileFunction,Copper,L2,Bot*
G04 #@! TF.FilePolarity,Positive*
%FSLAX46Y46*%
G04 Gerber Fmt 4.6, Leading zero omitted, Abs format (unit mm)*
G04 Created by KiCad (PCBNEW (5.1.5)-3) date 2021-05-07 14:02:41*
%MOMM*%
%LPD*%
G04 APERTURE LIST*
%ADD10O,2.400000X2.400000*%
%ADD11C,2.400000*%
%ADD12O,1.800000X1.800000*%
%ADD13R,1.800000X1.800000*%
%ADD14C,5.600000*%
%ADD15O,2.200000X1.740000*%
%ADD16C,0.100000*%
%ADD17O,4.000000X2.500000*%
%ADD18C,1.625600*%
%ADD19O,2.500000X4.500000*%
%ADD20R,2.500000X4.500000*%
%ADD21C,1.440000*%
%ADD22O,1.600000X1.600000*%
%ADD23C,1.600000*%
%ADD24O,1.905000X2.000000*%
%ADD25R,1.905000X2.000000*%
%ADD26R,1.500000X1.050000*%
%ADD27O,1.500000X1.050000*%
%ADD28R,1.050000X1.500000*%
%ADD29O,1.050000X1.500000*%
%ADD30O,2.200000X2.200000*%
%ADD31R,2.200000X2.200000*%
%ADD32R,1.600000X1.600000*%
%ADD33C,2.000000*%
%ADD34R,2.000000X2.000000*%
%ADD35C,4.000000*%
%ADD36R,4.000000X4.000000*%
%ADD37R,2.400000X2.400000*%
%ADD38C,0.800000*%
%ADD39C,1.500000*%
%ADD40C,1.200000*%
%ADD41C,1.000000*%
%ADD42C,1.500000*%
%ADD43C,0.750000*%
%ADD44C,2.000000*%
%ADD45C,5.000000*%
%ADD46C,7.000000*%
%ADD47C,0.254000*%
G04 APERTURE END LIST*
D10*
X207596000Y-62103000D03*
D11*
X192356000Y-62103000D03*
D12*
X140286000Y-121031000D03*
X142826000Y-121031000D03*
D13*
X145366000Y-121031000D03*
D12*
X146128000Y-62103000D03*
X143588000Y-62103000D03*
D13*
X141048000Y-62103000D03*
D14*
X77579000Y-45289000D03*
X77579000Y-137591000D03*
X327961000Y-137591000D03*
X327961000Y-45289000D03*
D15*
X122506000Y-93980000D03*
X122506000Y-91440000D03*
G04 #@! TA.AperFunction,ComponentPad*
D16*
G36*
X123380505Y-88031204D02*
G01*
X123404773Y-88034804D01*
X123428572Y-88040765D01*
X123451671Y-88049030D01*
X123473850Y-88059520D01*
X123494893Y-88072132D01*
X123514599Y-88086747D01*
X123532777Y-88103223D01*
X123549253Y-88121401D01*
X123563868Y-88141107D01*
X123576480Y-88162150D01*
X123586970Y-88184329D01*
X123595235Y-88207428D01*
X123601196Y-88231227D01*
X123604796Y-88255495D01*
X123606000Y-88279999D01*
X123606000Y-89520001D01*
X123604796Y-89544505D01*
X123601196Y-89568773D01*
X123595235Y-89592572D01*
X123586970Y-89615671D01*
X123576480Y-89637850D01*
X123563868Y-89658893D01*
X123549253Y-89678599D01*
X123532777Y-89696777D01*
X123514599Y-89713253D01*
X123494893Y-89727868D01*
X123473850Y-89740480D01*
X123451671Y-89750970D01*
X123428572Y-89759235D01*
X123404773Y-89765196D01*
X123380505Y-89768796D01*
X123356001Y-89770000D01*
X121655999Y-89770000D01*
X121631495Y-89768796D01*
X121607227Y-89765196D01*
X121583428Y-89759235D01*
X121560329Y-89750970D01*
X121538150Y-89740480D01*
X121517107Y-89727868D01*
X121497401Y-89713253D01*
X121479223Y-89696777D01*
X121462747Y-89678599D01*
X121448132Y-89658893D01*
X121435520Y-89637850D01*
X121425030Y-89615671D01*
X121416765Y-89592572D01*
X121410804Y-89568773D01*
X121407204Y-89544505D01*
X121406000Y-89520001D01*
X121406000Y-88279999D01*
X121407204Y-88255495D01*
X121410804Y-88231227D01*
X121416765Y-88207428D01*
X121425030Y-88184329D01*
X121435520Y-88162150D01*
X121448132Y-88141107D01*
X121462747Y-88121401D01*
X121479223Y-88103223D01*
X121497401Y-88086747D01*
X121517107Y-88072132D01*
X121538150Y-88059520D01*
X121560329Y-88049030D01*
X121583428Y-88040765D01*
X121607227Y-88034804D01*
X121631495Y-88031204D01*
X121655999Y-88030000D01*
X123356001Y-88030000D01*
X123380505Y-88031204D01*
G37*
G04 #@! TD.AperFunction*
D17*
X249252000Y-115189000D03*
X227252000Y-115189000D03*
X247728000Y-67564000D03*
X225728000Y-67564000D03*
D18*
X235917000Y-89027000D03*
X230917000Y-89027000D03*
X235917000Y-94027000D03*
X230917000Y-94027000D03*
X251458000Y-78979999D03*
X246458000Y-78979999D03*
X251458000Y-83980000D03*
X246458000Y-83980000D03*
X251458000Y-88980000D03*
X246458000Y-88980000D03*
X251458000Y-93980000D03*
X246458000Y-93980000D03*
X251458000Y-98980000D03*
X246458000Y-98980000D03*
X251458000Y-103980000D03*
X246458000Y-103980000D03*
D14*
X220327000Y-45288000D03*
X130984000Y-45288000D03*
X220327000Y-137592000D03*
X130984000Y-137592000D03*
D19*
X196950000Y-112522000D03*
X202400000Y-112522000D03*
D20*
X207850000Y-112522000D03*
D19*
X207828000Y-70358000D03*
X202378000Y-70358000D03*
D20*
X196928000Y-70358000D03*
D19*
X171550000Y-112522000D03*
X177000000Y-112522000D03*
D20*
X182450000Y-112522000D03*
D19*
X182428000Y-70358000D03*
X176978000Y-70358000D03*
D20*
X171528000Y-70358000D03*
D21*
X119839000Y-98552000D03*
X122379000Y-101092000D03*
X124919000Y-98552000D03*
D22*
X76659000Y-71374000D03*
D23*
X76659000Y-61214000D03*
D10*
X218010000Y-81534000D03*
D11*
X218010000Y-101854000D03*
D10*
X197000000Y-81020000D03*
D11*
X197000000Y-101340000D03*
D10*
X207800000Y-81020000D03*
D11*
X207800000Y-101340000D03*
D10*
X174700000Y-81020000D03*
D11*
X174700000Y-101340000D03*
D10*
X186400000Y-81020000D03*
D11*
X186400000Y-101340000D03*
D10*
X207850000Y-120904000D03*
D11*
X192610000Y-120904000D03*
D10*
X182450000Y-120904000D03*
D11*
X167210000Y-120904000D03*
D10*
X182069000Y-62103000D03*
D11*
X166829000Y-62103000D03*
D22*
X162511000Y-94615000D03*
D23*
X162511000Y-104775000D03*
D22*
X162511000Y-77978000D03*
D23*
X162511000Y-88138000D03*
D22*
X167591000Y-94615000D03*
D23*
X167591000Y-104775000D03*
D22*
X167591000Y-88138000D03*
D23*
X167591000Y-77978000D03*
D22*
X151589000Y-96647000D03*
D23*
X151589000Y-86487000D03*
D22*
X155780000Y-115951000D03*
D23*
X145620000Y-115951000D03*
D22*
X149176000Y-66802000D03*
D23*
X159336000Y-66802000D03*
D22*
X134825000Y-126492000D03*
D23*
X124665000Y-126492000D03*
D22*
X124665000Y-56388000D03*
D23*
X134825000Y-56388000D03*
D10*
X159209000Y-110490000D03*
D11*
X143969000Y-110490000D03*
D10*
X144096000Y-72644000D03*
D11*
X159336000Y-72644000D03*
D22*
X141175000Y-104394000D03*
D23*
X141175000Y-94234000D03*
D22*
X141175000Y-88646000D03*
D23*
X141175000Y-78486000D03*
D22*
X116664000Y-104521000D03*
D23*
X116664000Y-114681000D03*
D22*
X111838000Y-104521000D03*
D23*
X111838000Y-114681000D03*
D22*
X134825000Y-114935000D03*
D23*
X124665000Y-114935000D03*
D22*
X134825000Y-66167000D03*
D23*
X124665000Y-66167000D03*
D22*
X134825000Y-120142000D03*
D23*
X124665000Y-120142000D03*
D22*
X134825000Y-61214000D03*
D23*
X124665000Y-61214000D03*
D22*
X128475000Y-70866000D03*
D23*
X138635000Y-70866000D03*
D22*
X101297000Y-104013000D03*
D23*
X101297000Y-93853000D03*
D22*
X101297000Y-89027000D03*
D23*
X101297000Y-78867000D03*
D22*
X120093000Y-74549000D03*
D23*
X130253000Y-74549000D03*
D22*
X106885000Y-114681000D03*
D23*
X106885000Y-104521000D03*
D22*
X105869000Y-77724000D03*
D23*
X105869000Y-67564000D03*
D22*
X82501000Y-122174000D03*
D23*
X82501000Y-132334000D03*
D22*
X83136000Y-61595000D03*
D23*
X83136000Y-51435000D03*
D22*
X87200000Y-122174000D03*
D23*
X87200000Y-132334000D03*
D22*
X87962000Y-61595000D03*
D23*
X87962000Y-51435000D03*
D22*
X91899000Y-93853000D03*
D23*
X91899000Y-104013000D03*
D22*
X87200000Y-93853000D03*
D23*
X87200000Y-104013000D03*
D22*
X91899000Y-89027000D03*
D23*
X91899000Y-78867000D03*
D22*
X87200000Y-89027000D03*
D23*
X87200000Y-78867000D03*
D22*
X96598000Y-93853000D03*
D23*
X96598000Y-104013000D03*
D22*
X82501000Y-93853000D03*
D23*
X82501000Y-104013000D03*
D22*
X96598000Y-89027000D03*
D23*
X96598000Y-78867000D03*
D22*
X82501000Y-89027000D03*
D23*
X82501000Y-78867000D03*
D22*
X76659000Y-75057000D03*
D23*
X76659000Y-85217000D03*
D22*
X76659000Y-107950000D03*
D23*
X76659000Y-97790000D03*
D24*
X154510000Y-120904000D03*
X157050000Y-120904000D03*
D25*
X159590000Y-120904000D03*
D24*
X159590000Y-61976000D03*
X157050000Y-61976000D03*
D25*
X154510000Y-61976000D03*
D12*
X140286000Y-126492000D03*
X142826000Y-126492000D03*
D13*
X145366000Y-126492000D03*
D12*
X146128000Y-56388000D03*
X143588000Y-56388000D03*
D13*
X141048000Y-56388000D03*
D26*
X129237000Y-97155000D03*
D27*
X129237000Y-99695000D03*
X129237000Y-98425000D03*
D26*
X129999000Y-85598000D03*
D27*
X129999000Y-83058000D03*
X129999000Y-84328000D03*
D28*
X91899000Y-116586000D03*
D29*
X94439000Y-116586000D03*
X93169000Y-116586000D03*
D28*
X91899000Y-66929000D03*
D29*
X94439000Y-66929000D03*
X93169000Y-66929000D03*
D28*
X87200000Y-115824000D03*
D29*
X84660000Y-115824000D03*
X85930000Y-115824000D03*
D28*
X87200000Y-66167000D03*
D29*
X84660000Y-66167000D03*
X85930000Y-66167000D03*
D28*
X94439000Y-109347000D03*
D29*
X91899000Y-109347000D03*
X93169000Y-109347000D03*
D28*
X84660000Y-110109000D03*
D29*
X87200000Y-110109000D03*
X85930000Y-110109000D03*
D28*
X94439000Y-72644000D03*
D29*
X91899000Y-72644000D03*
X93169000Y-72644000D03*
D28*
X84660000Y-73406000D03*
D29*
X87200000Y-73406000D03*
X85930000Y-73406000D03*
D15*
X76659000Y-88900000D03*
X76659000Y-91440000D03*
G04 #@! TA.AperFunction,ComponentPad*
D16*
G36*
X77533505Y-93111204D02*
G01*
X77557773Y-93114804D01*
X77581572Y-93120765D01*
X77604671Y-93129030D01*
X77626850Y-93139520D01*
X77647893Y-93152132D01*
X77667599Y-93166747D01*
X77685777Y-93183223D01*
X77702253Y-93201401D01*
X77716868Y-93221107D01*
X77729480Y-93242150D01*
X77739970Y-93264329D01*
X77748235Y-93287428D01*
X77754196Y-93311227D01*
X77757796Y-93335495D01*
X77759000Y-93359999D01*
X77759000Y-94600001D01*
X77757796Y-94624505D01*
X77754196Y-94648773D01*
X77748235Y-94672572D01*
X77739970Y-94695671D01*
X77729480Y-94717850D01*
X77716868Y-94738893D01*
X77702253Y-94758599D01*
X77685777Y-94776777D01*
X77667599Y-94793253D01*
X77647893Y-94807868D01*
X77626850Y-94820480D01*
X77604671Y-94830970D01*
X77581572Y-94839235D01*
X77557773Y-94845196D01*
X77533505Y-94848796D01*
X77509001Y-94850000D01*
X75808999Y-94850000D01*
X75784495Y-94848796D01*
X75760227Y-94845196D01*
X75736428Y-94839235D01*
X75713329Y-94830970D01*
X75691150Y-94820480D01*
X75670107Y-94807868D01*
X75650401Y-94793253D01*
X75632223Y-94776777D01*
X75615747Y-94758599D01*
X75601132Y-94738893D01*
X75588520Y-94717850D01*
X75578030Y-94695671D01*
X75569765Y-94672572D01*
X75563804Y-94648773D01*
X75560204Y-94624505D01*
X75559000Y-94600001D01*
X75559000Y-93359999D01*
X75560204Y-93335495D01*
X75563804Y-93311227D01*
X75569765Y-93287428D01*
X75578030Y-93264329D01*
X75588520Y-93242150D01*
X75601132Y-93221107D01*
X75615747Y-93201401D01*
X75632223Y-93183223D01*
X75650401Y-93166747D01*
X75670107Y-93152132D01*
X75691150Y-93139520D01*
X75713329Y-93129030D01*
X75736428Y-93120765D01*
X75760227Y-93114804D01*
X75784495Y-93111204D01*
X75808999Y-93110000D01*
X77509001Y-93110000D01*
X77533505Y-93111204D01*
G37*
G04 #@! TD.AperFunction*
D30*
X99011000Y-129540000D03*
D31*
X99011000Y-139700000D03*
D30*
X93486500Y-129540000D03*
D31*
X93486500Y-139700000D03*
D30*
X99011000Y-43307000D03*
D31*
X99011000Y-53467000D03*
D30*
X93423000Y-43180000D03*
D31*
X93423000Y-53340000D03*
D30*
X223471000Y-95631000D03*
D31*
X223471000Y-105791000D03*
D30*
X223471000Y-76581000D03*
D31*
X223471000Y-86741000D03*
D22*
X145747000Y-94234000D03*
D32*
X145747000Y-104394000D03*
D22*
X145747000Y-78486000D03*
D32*
X145747000Y-88646000D03*
D22*
X137492000Y-107061000D03*
D32*
X127332000Y-107061000D03*
D22*
X130888000Y-79248000D03*
D32*
X120728000Y-79248000D03*
D22*
X159209000Y-104013000D03*
D32*
X149049000Y-104013000D03*
D22*
X149049000Y-78867000D03*
D32*
X159209000Y-78867000D03*
D33*
X109171000Y-88185000D03*
D34*
X109171000Y-83185000D03*
D33*
X109171000Y-94695000D03*
D34*
X109171000Y-99695000D03*
D33*
X165940000Y-108451000D03*
X165940000Y-115951000D03*
D35*
X275922000Y-77564000D03*
D36*
X275922000Y-67564000D03*
D35*
X313514000Y-115156000D03*
D36*
X313514000Y-105156000D03*
D33*
X191340000Y-115831000D03*
X191340000Y-108331000D03*
X213438000Y-76461000D03*
X213438000Y-68961000D03*
D35*
X275922000Y-115156000D03*
D36*
X275922000Y-105156000D03*
D35*
X313514000Y-77564000D03*
D36*
X313514000Y-67564000D03*
D23*
X157304000Y-94615000D03*
X157304000Y-99615000D03*
X157304000Y-83138000D03*
X157304000Y-88138000D03*
X135841000Y-97155000D03*
X135841000Y-102155000D03*
X135841000Y-80598000D03*
X135841000Y-85598000D03*
D33*
X106504000Y-139573000D03*
X106504000Y-132073000D03*
X106250000Y-50673000D03*
X106250000Y-43173000D03*
D11*
X117807000Y-139580000D03*
D37*
X117807000Y-132080000D03*
D11*
X117807000Y-50680000D03*
D37*
X117807000Y-43180000D03*
D23*
X137826000Y-115951000D03*
X142826000Y-115951000D03*
X146429000Y-66802000D03*
X141429000Y-66802000D03*
X115822000Y-74549000D03*
X110822000Y-74549000D03*
X116283000Y-83232000D03*
X116283000Y-78232000D03*
X116283000Y-88980000D03*
X116283000Y-93980000D03*
D33*
X188038000Y-76461000D03*
X188038000Y-68961000D03*
D11*
X111584000Y-119500000D03*
D37*
X111584000Y-127000000D03*
D11*
X111584000Y-55873000D03*
D37*
X111584000Y-63373000D03*
D33*
X100535000Y-118230000D03*
X100535000Y-125730000D03*
X100154000Y-65913000D03*
X100154000Y-58413000D03*
D23*
X76659000Y-116125000D03*
X76659000Y-111125000D03*
D38*
X216867000Y-116840000D03*
X216867000Y-117983000D03*
X216867000Y-65786000D03*
D39*
X248958000Y-91527000D03*
D40*
X207850000Y-128270000D03*
X207723000Y-55753000D03*
X159600000Y-126492000D03*
D41*
X82501000Y-93853000D02*
X82501000Y-89027000D01*
X76659000Y-75057000D02*
X76659000Y-80010000D01*
X82501000Y-85852000D02*
X82501000Y-89027000D01*
X76659000Y-80010000D02*
X82501000Y-85852000D01*
X82501000Y-97536000D02*
X82501000Y-93853000D01*
X76659000Y-116125000D02*
X79580000Y-113204000D01*
X79580000Y-100457000D02*
X82501000Y-97536000D01*
X79580000Y-113204000D02*
X79580000Y-100457000D01*
X76659000Y-107950000D02*
X76659000Y-111125000D01*
X107393000Y-67564000D02*
X105869000Y-67564000D01*
X111584000Y-63373000D02*
X107393000Y-67564000D01*
D42*
X109552000Y-61341000D02*
X111584000Y-63373000D01*
X97995000Y-61341000D02*
X109552000Y-61341000D01*
X93423000Y-53340000D02*
X93423000Y-56769000D01*
X93423000Y-56769000D02*
X97995000Y-61341000D01*
D43*
X111076000Y-62865000D02*
X111584000Y-63373000D01*
X100154000Y-65913000D02*
X103202000Y-62865000D01*
X103202000Y-62865000D02*
X111076000Y-62865000D01*
X111203000Y-63754000D02*
X111584000Y-63373000D01*
X94439000Y-71144000D02*
X97384000Y-68199000D01*
X97384000Y-68199000D02*
X102059000Y-68199000D01*
X106504000Y-63754000D02*
X111203000Y-63754000D01*
X102059000Y-68199000D02*
X106504000Y-63754000D01*
X85930000Y-64389000D02*
X85930000Y-66167000D01*
X83136000Y-61595000D02*
X85930000Y-64389000D01*
X85930000Y-66167000D02*
X85930000Y-66929000D01*
X85930000Y-66929000D02*
X85930000Y-68326000D01*
X85930000Y-68326000D02*
X87454000Y-69850000D01*
X94439000Y-71144000D02*
X94439000Y-72644000D01*
X93145000Y-69850000D02*
X94439000Y-71144000D01*
X87454000Y-69850000D02*
X93145000Y-69850000D01*
X213438000Y-68961000D02*
X221312000Y-68961000D01*
X221312000Y-68961000D02*
X243391001Y-91040001D01*
X218391000Y-116840000D02*
X216867000Y-116840000D01*
X243791000Y-91440000D02*
X218391000Y-116840000D01*
X216867000Y-116840000D02*
X216867000Y-116840000D01*
X217248000Y-117983000D02*
X217248000Y-117983000D01*
X216867000Y-117983000D02*
X216867000Y-117983000D01*
X217248000Y-117983000D02*
X216867000Y-117983000D01*
X218772000Y-117983000D02*
X217248000Y-117983000D01*
X244299000Y-92456000D02*
X218772000Y-117983000D01*
X248958000Y-91527000D02*
X248029000Y-92456000D01*
X248029000Y-92456000D02*
X244299000Y-92456000D01*
X243878000Y-91527000D02*
X248958000Y-91527000D01*
X243791000Y-91440000D02*
X243878000Y-91527000D01*
X243391001Y-91040001D02*
X243791000Y-91440000D01*
X247982000Y-90551000D02*
X248958000Y-91527000D01*
X244345002Y-90551000D02*
X247982000Y-90551000D01*
X216867000Y-65786000D02*
X219580002Y-65786000D01*
X219580002Y-65786000D02*
X244345002Y-90551000D01*
D44*
X112607000Y-55873000D02*
X111584000Y-55873000D01*
X116600001Y-51879999D02*
X112607000Y-55873000D01*
X117807000Y-50680000D02*
X116607001Y-51879999D01*
X116607001Y-51879999D02*
X116600001Y-51879999D01*
D41*
X207723000Y-55753000D02*
X207723000Y-55753000D01*
X207850000Y-128270000D02*
X207850000Y-128270000D01*
D44*
X117190000Y-132080000D02*
X117807000Y-132080000D01*
X111584000Y-127000000D02*
X112110000Y-127000000D01*
X112110000Y-127000000D02*
X117190000Y-132080000D01*
D42*
X181930000Y-128270000D02*
X207850000Y-128270000D01*
X159209000Y-110490000D02*
X164150000Y-110490000D01*
X164150000Y-110490000D02*
X181930000Y-128270000D01*
X207723000Y-55753000D02*
X177387000Y-55753000D01*
X160496000Y-72644000D02*
X159336000Y-72644000D01*
X177387000Y-55753000D02*
X160496000Y-72644000D01*
X93423000Y-127857366D02*
X98090366Y-123190000D01*
X93423000Y-129413000D02*
X93423000Y-127857366D01*
X107894000Y-123190000D02*
X111584000Y-119500000D01*
X98090366Y-123190000D02*
X107894000Y-123190000D01*
D41*
X109886944Y-119500000D02*
X109879944Y-119507000D01*
X111584000Y-119500000D02*
X109886944Y-119500000D01*
X101812000Y-119507000D02*
X100535000Y-118230000D01*
X109879944Y-119507000D02*
X101812000Y-119507000D01*
X108028000Y-114681000D02*
X106885000Y-114681000D01*
X111584000Y-119500000D02*
X111584000Y-118237000D01*
X111584000Y-118237000D02*
X108028000Y-114681000D01*
D43*
X94439000Y-109347000D02*
X94566000Y-109347000D01*
X111326500Y-119500000D02*
X111584000Y-119500000D01*
X109428500Y-117602000D02*
X111326500Y-119500000D01*
X102821000Y-117602000D02*
X109428500Y-117602000D01*
X94566000Y-109347000D02*
X102821000Y-117602000D01*
X94439000Y-111633000D02*
X94439000Y-109347000D01*
X87683998Y-113030000D02*
X93042000Y-113030000D01*
X93042000Y-113030000D02*
X94439000Y-111633000D01*
X85930000Y-115824000D02*
X85930000Y-114783998D01*
X85930000Y-114783998D02*
X87683998Y-113030000D01*
X85930000Y-118745000D02*
X82501000Y-122174000D01*
X85930000Y-115824000D02*
X85930000Y-118745000D01*
D44*
X167337000Y-50292000D02*
X159590000Y-50292000D01*
X208358000Y-50292000D02*
X167337000Y-50292000D01*
X225728000Y-67564000D02*
X225630000Y-67564000D01*
X225630000Y-67564000D02*
X208358000Y-50292000D01*
D42*
X157177000Y-52705000D02*
X159590000Y-50292000D01*
X146128000Y-56388000D02*
X149811000Y-52705000D01*
X149811000Y-52705000D02*
X157177000Y-52705000D01*
D44*
X146636000Y-50292000D02*
X159590000Y-50292000D01*
X134825000Y-56388000D02*
X140921000Y-50292000D01*
X140921000Y-50292000D02*
X146636000Y-50292000D01*
D42*
X159590000Y-53350000D02*
X159590000Y-50292000D01*
X157000000Y-55940000D02*
X159590000Y-53350000D01*
X157050000Y-61976000D02*
X157000000Y-61926000D01*
X157000000Y-61926000D02*
X157000000Y-55940000D01*
D43*
X114886000Y-93980000D02*
X116283000Y-93980000D01*
X109171000Y-99695000D02*
X114886000Y-93980000D01*
D41*
X119505000Y-70866000D02*
X115822000Y-74549000D01*
X128475000Y-70866000D02*
X119505000Y-70866000D01*
X110822000Y-76708000D02*
X110822000Y-74549000D01*
X101297000Y-89027000D02*
X101297000Y-86233000D01*
X101297000Y-86233000D02*
X110822000Y-76708000D01*
X96598000Y-93726000D02*
X101297000Y-89027000D01*
X96598000Y-93853000D02*
X96598000Y-93726000D01*
X101297000Y-93726000D02*
X98955500Y-91384500D01*
X101297000Y-93853000D02*
X101297000Y-93726000D01*
X98955500Y-91384500D02*
X96598000Y-89027000D01*
D43*
X146128000Y-66755000D02*
X146175000Y-66802000D01*
X87962000Y-65405000D02*
X87962000Y-61595000D01*
X87200000Y-66167000D02*
X87962000Y-65405000D01*
X87962000Y-66929000D02*
X87200000Y-66167000D01*
X91899000Y-66929000D02*
X87962000Y-66929000D01*
X146128000Y-66501000D02*
X146429000Y-66802000D01*
X146128000Y-62103000D02*
X146128000Y-66501000D01*
D41*
X143588000Y-62484000D02*
X143588000Y-62103000D01*
X120728000Y-79248000D02*
X127332000Y-72644000D01*
X133428000Y-72644000D02*
X143588000Y-62484000D01*
X127332000Y-72644000D02*
X133428000Y-72644000D01*
X122506000Y-81026000D02*
X120728000Y-79248000D01*
X122506000Y-88900000D02*
X122506000Y-81026000D01*
D43*
X87200000Y-115824000D02*
X87327000Y-115824000D01*
X88089000Y-116586000D02*
X91899000Y-116586000D01*
X87327000Y-115824000D02*
X88089000Y-116586000D01*
X87200000Y-122174000D02*
X87200000Y-115824000D01*
D41*
X119839000Y-98552000D02*
X122379000Y-101092000D01*
X137492000Y-110617000D02*
X142826000Y-115951000D01*
X137492000Y-107061000D02*
X137492000Y-110617000D01*
X134317000Y-103886000D02*
X137492000Y-107061000D01*
X122379000Y-101092000D02*
X125173000Y-103886000D01*
X125173000Y-103886000D02*
X134317000Y-103886000D01*
X122506000Y-100965000D02*
X122379000Y-101092000D01*
X122506000Y-93980000D02*
X122506000Y-100965000D01*
D42*
X142826000Y-122303792D02*
X142826000Y-121031000D01*
X140300000Y-124829792D02*
X142826000Y-122303792D01*
X140286000Y-126492000D02*
X140300000Y-126478000D01*
X140300000Y-126478000D02*
X140300000Y-124829792D01*
X83136000Y-51435000D02*
X87962000Y-51435000D01*
X113235000Y-47752000D02*
X117807000Y-43180000D01*
X92776370Y-47752000D02*
X113235000Y-47752000D01*
X87962000Y-51435000D02*
X89093370Y-51435000D01*
X89093370Y-51435000D02*
X92776370Y-47752000D01*
D41*
X117800000Y-43173000D02*
X117807000Y-43180000D01*
X106250000Y-43173000D02*
X117800000Y-43173000D01*
X124665000Y-56388000D02*
X124665000Y-61595000D01*
X124665000Y-50038000D02*
X124665000Y-56388000D01*
X117807000Y-43180000D02*
X124665000Y-50038000D01*
X94394010Y-66757010D02*
X94394010Y-63074010D01*
X94439000Y-66929000D02*
X94439000Y-66802000D01*
X94439000Y-66802000D02*
X94394010Y-66757010D01*
X87962000Y-56642000D02*
X87962000Y-51435000D01*
X94394010Y-63074010D02*
X87962000Y-56642000D01*
D42*
X106511000Y-139580000D02*
X106504000Y-139573000D01*
D41*
X117807000Y-139580000D02*
X106511000Y-139580000D01*
D42*
X113736000Y-135509000D02*
X117807000Y-139580000D01*
X87200000Y-132334000D02*
X90375000Y-135509000D01*
X90375000Y-135509000D02*
X113736000Y-135509000D01*
X87200000Y-132334000D02*
X82501000Y-132334000D01*
X119006999Y-138380001D02*
X119006999Y-138373001D01*
X117807000Y-139580000D02*
X119006999Y-138380001D01*
X124665000Y-132715000D02*
X124665000Y-125095000D01*
X119006999Y-138373001D02*
X124665000Y-132715000D01*
X124665000Y-120142000D02*
X124665000Y-125095000D01*
D41*
X87200000Y-131202630D02*
X87200000Y-132334000D01*
X87200000Y-127127000D02*
X87200000Y-131202630D01*
X94439000Y-116586000D02*
X94439000Y-119888000D01*
X94439000Y-119888000D02*
X87200000Y-127127000D01*
D43*
X141175000Y-78486000D02*
X145747000Y-78486000D01*
D41*
X145747000Y-80010000D02*
X145747000Y-78486000D01*
X157304000Y-83138000D02*
X148875000Y-83138000D01*
X148875000Y-83138000D02*
X145747000Y-80010000D01*
X159209000Y-81280000D02*
X159209000Y-78867000D01*
X157304000Y-83138000D02*
X157351000Y-83138000D01*
X157351000Y-83138000D02*
X159209000Y-81280000D01*
D43*
X132111000Y-84328000D02*
X135841000Y-80598000D01*
X129999000Y-84328000D02*
X132111000Y-84328000D01*
X135841000Y-80598000D02*
X137826000Y-78613000D01*
X137953000Y-78486000D02*
X137826000Y-78613000D01*
X141175000Y-78486000D02*
X137953000Y-78486000D01*
D42*
X161622000Y-78867000D02*
X162511000Y-77978000D01*
X159209000Y-78867000D02*
X161622000Y-78867000D01*
X162511000Y-83058000D02*
X167591000Y-88138000D01*
X162511000Y-77978000D02*
X162511000Y-83058000D01*
D45*
X186260000Y-91440000D02*
X197055000Y-91440000D01*
X197055000Y-91440000D02*
X197436000Y-91440000D01*
X208104000Y-91440000D02*
X218010000Y-81534000D01*
X197055000Y-91440000D02*
X208104000Y-91440000D01*
D43*
X141175000Y-91440000D02*
X141175000Y-88646000D01*
X141175000Y-94234000D02*
X141175000Y-91440000D01*
X143969000Y-88646000D02*
X145747000Y-88646000D01*
X141175000Y-91440000D02*
X143969000Y-88646000D01*
X141175000Y-91440000D02*
X143969000Y-94234000D01*
X143969000Y-94234000D02*
X145747000Y-94234000D01*
D45*
X196674000Y-91440000D02*
X197055000Y-91440000D01*
D42*
X141175000Y-91440000D02*
X186260000Y-91440000D01*
D43*
X129999000Y-85598000D02*
X135841000Y-85598000D01*
X138127000Y-85598000D02*
X141175000Y-88646000D01*
X135841000Y-85598000D02*
X138127000Y-85598000D01*
X129237000Y-97155000D02*
X135841000Y-97155000D01*
X138254000Y-97155000D02*
X141175000Y-94234000D01*
X135841000Y-97155000D02*
X138254000Y-97155000D01*
X128983000Y-85598000D02*
X129999000Y-85598000D01*
X127713000Y-75957630D02*
X127713000Y-84328000D01*
X130253000Y-74549000D02*
X129121630Y-74549000D01*
X127713000Y-84328000D02*
X128983000Y-85598000D01*
X129121630Y-74549000D02*
X127713000Y-75957630D01*
D45*
X207800000Y-91744000D02*
X207800000Y-101340000D01*
X208104000Y-91440000D02*
X207800000Y-91744000D01*
X207420000Y-91440000D02*
X197000000Y-81020000D01*
X208104000Y-91440000D02*
X207420000Y-91440000D01*
X185120000Y-91440000D02*
X174700000Y-81020000D01*
X186260000Y-91440000D02*
X185120000Y-91440000D01*
X186400000Y-91580000D02*
X186400000Y-101340000D01*
X186260000Y-91440000D02*
X186400000Y-91580000D01*
D43*
X141175000Y-104394000D02*
X145747000Y-104394000D01*
D41*
X145747000Y-102594000D02*
X145747000Y-104394000D01*
X148773000Y-99568000D02*
X145747000Y-102594000D01*
X157304000Y-99615000D02*
X157257000Y-99568000D01*
X157257000Y-99568000D02*
X148773000Y-99568000D01*
D43*
X132111000Y-98425000D02*
X135841000Y-102155000D01*
X129237000Y-98425000D02*
X132111000Y-98425000D01*
X138080000Y-104394000D02*
X141175000Y-104394000D01*
X135841000Y-102155000D02*
X138080000Y-104394000D01*
D42*
X161749000Y-104013000D02*
X162511000Y-104775000D01*
X159209000Y-104013000D02*
X161749000Y-104013000D01*
X162511000Y-99695000D02*
X167591000Y-94615000D01*
X162511000Y-104775000D02*
X162511000Y-99695000D01*
D41*
X157351000Y-99615000D02*
X159209000Y-101473000D01*
X159209000Y-101473000D02*
X159209000Y-104013000D01*
X157304000Y-99615000D02*
X157351000Y-99615000D01*
X157304000Y-88138000D02*
X162511000Y-88138000D01*
D45*
X207828000Y-70358000D02*
X207828000Y-80992000D01*
D41*
X157304000Y-94615000D02*
X162511000Y-94615000D01*
D45*
X196950000Y-101390000D02*
X197000000Y-101340000D01*
X196950000Y-112522000D02*
X196950000Y-101390000D01*
D46*
X313514000Y-67564000D02*
X275922000Y-67564000D01*
X275922000Y-67564000D02*
X262333000Y-67564000D01*
X262333000Y-67564000D02*
X248490000Y-81407000D01*
X254078000Y-73914000D02*
X247728000Y-67564000D01*
X254078000Y-75692000D02*
X254078000Y-73914000D01*
X313514000Y-115156000D02*
X275922000Y-115156000D01*
D45*
X275889000Y-115189000D02*
X275922000Y-115156000D01*
D46*
X262079000Y-115156000D02*
X250903000Y-103980000D01*
X275922000Y-115156000D02*
X262079000Y-115156000D01*
X254586000Y-107823000D02*
X253951000Y-107188000D01*
X248871000Y-115824000D02*
X255729000Y-108966000D01*
X254586000Y-108331000D02*
X254586000Y-107823000D01*
D44*
X227252000Y-115189000D02*
X227252000Y-115218000D01*
X227252000Y-115218000D02*
X209882000Y-132588000D01*
X209882000Y-132588000D02*
X154510000Y-132588000D01*
X140921000Y-132588000D02*
X134825000Y-126492000D01*
X154510000Y-132588000D02*
X140921000Y-132588000D01*
D42*
X157000000Y-130098000D02*
X154510000Y-132588000D01*
X157050000Y-120904000D02*
X157000000Y-120954000D01*
X157000000Y-120954000D02*
X157000000Y-130098000D01*
X152224000Y-130302000D02*
X154510000Y-132588000D01*
X142823208Y-128740000D02*
X144385208Y-130302000D01*
X144385208Y-130302000D02*
X152224000Y-130302000D01*
X142823208Y-127767584D02*
X142823208Y-128740000D01*
X142826000Y-127764792D02*
X142823208Y-127767584D01*
X142826000Y-126492000D02*
X142826000Y-127764792D01*
D41*
X109171000Y-88185000D02*
X109171000Y-94695000D01*
D42*
X149049000Y-77597000D02*
X144096000Y-72644000D01*
X149049000Y-78867000D02*
X149049000Y-77597000D01*
X149049000Y-105410000D02*
X149049000Y-104013000D01*
X143969000Y-110490000D02*
X149049000Y-105410000D01*
D43*
X129999000Y-80137000D02*
X129999000Y-83058000D01*
X130888000Y-79248000D02*
X129999000Y-80137000D01*
D45*
X218010000Y-101854000D02*
X218010000Y-98171000D01*
X218010000Y-98171000D02*
X218010000Y-94742000D01*
X218010000Y-94742000D02*
X221185000Y-91567000D01*
X221185000Y-91567000D02*
X233250000Y-91567000D01*
D41*
X221185000Y-91916366D02*
X221185000Y-91567000D01*
X223439366Y-91916366D02*
X223471000Y-91948000D01*
X221185000Y-91916366D02*
X223439366Y-91916366D01*
X223471000Y-86741000D02*
X223471000Y-91948000D01*
X223471000Y-91948000D02*
X223471000Y-95631000D01*
X74119000Y-87757000D02*
X76659000Y-85217000D01*
X74119000Y-91000000D02*
X74119000Y-87757000D01*
X76659000Y-91440000D02*
X74559000Y-91440000D01*
X74559000Y-91440000D02*
X74119000Y-91000000D01*
X74119000Y-91880000D02*
X74559000Y-91440000D01*
X76659000Y-97790000D02*
X74119000Y-95250000D01*
X74119000Y-95250000D02*
X74119000Y-91880000D01*
D43*
X84660000Y-73406000D02*
X84660000Y-66167000D01*
X87200000Y-78867000D02*
X87200000Y-73406000D01*
X85930000Y-75438000D02*
X82501000Y-78867000D01*
X85930000Y-73406000D02*
X85930000Y-75438000D01*
X91899000Y-78867000D02*
X91899000Y-72644000D01*
X93169000Y-75438000D02*
X96598000Y-78867000D01*
X93169000Y-72644000D02*
X93169000Y-75438000D01*
X84660000Y-110109000D02*
X84660000Y-115824000D01*
X87200000Y-110109000D02*
X87200000Y-104013000D01*
X82501000Y-104013000D02*
X85930000Y-107442000D01*
X85930000Y-107442000D02*
X85930000Y-110109000D01*
X91899000Y-109347000D02*
X91899000Y-104013000D01*
X93169000Y-107442000D02*
X96598000Y-104013000D01*
X93169000Y-109347000D02*
X93169000Y-107442000D01*
D41*
X132412000Y-61214000D02*
X134825000Y-61214000D01*
X124665000Y-66167000D02*
X127459000Y-66167000D01*
X127459000Y-66167000D02*
X132412000Y-61214000D01*
X129872000Y-120142000D02*
X124665000Y-114935000D01*
X134825000Y-120142000D02*
X129872000Y-120142000D01*
X138889000Y-62103000D02*
X134825000Y-66167000D01*
X141048000Y-62103000D02*
X138889000Y-62103000D01*
X145366000Y-119131000D02*
X145366000Y-121031000D01*
X144726000Y-118491000D02*
X145366000Y-119131000D01*
X136730000Y-118491000D02*
X144726000Y-118491000D01*
X134825000Y-114935000D02*
X134825000Y-116586000D01*
X134825000Y-116586000D02*
X136730000Y-118491000D01*
D42*
X151716000Y-59182000D02*
X154510000Y-61976000D01*
X142318000Y-59182000D02*
X151716000Y-59182000D01*
X141048000Y-56388000D02*
X141048000Y-57912000D01*
X141048000Y-57912000D02*
X142318000Y-59182000D01*
D41*
X154510000Y-63976000D02*
X157374000Y-66840000D01*
X154510000Y-61976000D02*
X154510000Y-63976000D01*
X157412000Y-66802000D02*
X159336000Y-66802000D01*
X157374000Y-66840000D02*
X157412000Y-66802000D01*
X159590000Y-119761000D02*
X155780000Y-115951000D01*
X159590000Y-120904000D02*
X159590000Y-119761000D01*
D42*
X159590000Y-126482000D02*
X159600000Y-126492000D01*
X159590000Y-120904000D02*
X159590000Y-126482000D01*
D41*
X94185000Y-91313000D02*
X92698999Y-89826999D01*
X94185000Y-94234000D02*
X94185000Y-91313000D01*
X106885000Y-104521000D02*
X104472000Y-104521000D01*
X92698999Y-89826999D02*
X91899000Y-89027000D01*
X104472000Y-104521000D02*
X94185000Y-94234000D01*
X87327000Y-93853000D02*
X91899000Y-93853000D01*
X101297000Y-82296000D02*
X105869000Y-77724000D01*
X89613000Y-87757000D02*
X95074000Y-82296000D01*
X91899000Y-93853000D02*
X89613000Y-91567000D01*
X95074000Y-82296000D02*
X101297000Y-82296000D01*
X89613000Y-91567000D02*
X89613000Y-87757000D01*
X147525000Y-69342000D02*
X149176000Y-67691000D01*
X149176000Y-67691000D02*
X149176000Y-66802000D01*
X138635000Y-70866000D02*
X140159000Y-69342000D01*
X140159000Y-69342000D02*
X147525000Y-69342000D01*
D45*
X182428000Y-77048000D02*
X186400000Y-81020000D01*
X182428000Y-70358000D02*
X182428000Y-77048000D01*
D42*
X168390999Y-77178001D02*
X182788001Y-77178001D01*
X167591000Y-77978000D02*
X168390999Y-77178001D01*
X182788001Y-77178001D02*
X182850000Y-77240000D01*
D41*
X182428000Y-77048000D02*
X182850000Y-77240000D01*
X167591000Y-104775000D02*
X169496000Y-106680000D01*
D45*
X171550000Y-104490000D02*
X174700000Y-101340000D01*
X171550000Y-108540000D02*
X171550000Y-104490000D01*
D42*
X171550000Y-108734000D02*
X171550000Y-112522000D01*
X167591000Y-104775000D02*
X171550000Y-108734000D01*
D44*
X182069000Y-62103000D02*
X175137000Y-62103000D01*
X171528000Y-65712000D02*
X171528000Y-70358000D01*
X175137000Y-62103000D02*
X171528000Y-65712000D01*
X182450000Y-120904000D02*
X182450000Y-112522000D01*
X201059000Y-62103000D02*
X207596000Y-62103000D01*
X200037000Y-62103000D02*
X201059000Y-62103000D01*
X196928000Y-70358000D02*
X196928000Y-65212000D01*
X196928000Y-65212000D02*
X200037000Y-62103000D01*
X207850000Y-120904000D02*
X207850000Y-112522000D01*
D41*
X111838000Y-114681000D02*
X116664000Y-114681000D01*
X118823000Y-95377000D02*
X114251000Y-99949000D01*
X118823000Y-93023000D02*
X118823000Y-95377000D01*
X122506000Y-91440000D02*
X120406000Y-91440000D01*
X114251000Y-99949000D02*
X114251000Y-114427000D01*
X120406000Y-91440000D02*
X118823000Y-93023000D01*
D47*
G36*
X252935000Y-78149606D02*
G01*
X252935000Y-85172394D01*
X252509394Y-85598000D01*
X245486606Y-85598000D01*
X245061000Y-85172394D01*
X245061000Y-78149606D01*
X245486606Y-77724000D01*
X252509394Y-77724000D01*
X252935000Y-78149606D01*
G37*
X252935000Y-78149606D02*
X252935000Y-85172394D01*
X252509394Y-85598000D01*
X245486606Y-85598000D01*
X245061000Y-85172394D01*
X245061000Y-78149606D01*
X245486606Y-77724000D01*
X252509394Y-77724000D01*
X252935000Y-78149606D01*
G36*
X252935000Y-98088606D02*
G01*
X252935000Y-105111394D01*
X252509394Y-105537000D01*
X245486606Y-105537000D01*
X245061000Y-105111394D01*
X245061000Y-98088606D01*
X245486606Y-97663000D01*
X252509394Y-97663000D01*
X252935000Y-98088606D01*
G37*
X252935000Y-98088606D02*
X252935000Y-105111394D01*
X252509394Y-105537000D01*
X245486606Y-105537000D01*
X245061000Y-105111394D01*
X245061000Y-98088606D01*
X245486606Y-97663000D01*
X252509394Y-97663000D01*
X252935000Y-98088606D01*
G36*
X237314000Y-87928606D02*
G01*
X237314000Y-94951394D01*
X236888394Y-95377000D01*
X229865606Y-95377000D01*
X229440000Y-94951394D01*
X229440000Y-87928606D01*
X229865606Y-87503000D01*
X236888394Y-87503000D01*
X237314000Y-87928606D01*
G37*
X237314000Y-87928606D02*
X237314000Y-94951394D01*
X236888394Y-95377000D01*
X229865606Y-95377000D01*
X229440000Y-94951394D01*
X229440000Y-87928606D01*
X229865606Y-87503000D01*
X236888394Y-87503000D01*
X237314000Y-87928606D01*
M02*
