G04 #@! TF.GenerationSoftware,KiCad,Pcbnew,(5.1.5)-3*
G04 #@! TF.CreationDate,2021-05-07T14:02:41+02:00*
G04 #@! TF.ProjectId,LeachAmp_kicad,4c656163-6841-46d7-905f-6b696361642e,rev?*
G04 #@! TF.SameCoordinates,Original*
G04 #@! TF.FileFunction,Copper,L1,Top*
G04 #@! TF.FilePolarity,Positive*
%FSLAX46Y46*%
G04 Gerber Fmt 4.6, Leading zero omitted, Abs format (unit mm)*
G04 Created by KiCad (PCBNEW (5.1.5)-3) date 2021-05-07 14:02:41*
%MOMM*%
%LPD*%
G04 APERTURE LIST*
%ADD10O,2.400000X2.400000*%
%ADD11C,2.400000*%
%ADD12O,1.800000X1.800000*%
%ADD13R,1.800000X1.800000*%
%ADD14C,5.600000*%
%ADD15O,2.200000X1.740000*%
%ADD16C,0.100000*%
%ADD17O,4.000000X2.500000*%
%ADD18C,1.625600*%
%ADD19O,2.500000X4.500000*%
%ADD20R,2.500000X4.500000*%
%ADD21C,1.440000*%
%ADD22O,1.600000X1.600000*%
%ADD23C,1.600000*%
%ADD24O,1.905000X2.000000*%
%ADD25R,1.905000X2.000000*%
%ADD26R,1.500000X1.050000*%
%ADD27O,1.500000X1.050000*%
%ADD28R,1.050000X1.500000*%
%ADD29O,1.050000X1.500000*%
%ADD30O,2.200000X2.200000*%
%ADD31R,2.200000X2.200000*%
%ADD32R,1.600000X1.600000*%
%ADD33C,2.000000*%
%ADD34R,2.000000X2.000000*%
%ADD35C,4.000000*%
%ADD36R,4.000000X4.000000*%
%ADD37R,2.400000X2.400000*%
%ADD38C,0.800000*%
%ADD39C,1.500000*%
%ADD40C,1.200000*%
%ADD41C,1.000000*%
%ADD42C,0.750000*%
%ADD43C,1.500000*%
%ADD44C,5.000000*%
%ADD45C,2.000000*%
%ADD46C,3.000000*%
%ADD47C,0.254000*%
G04 APERTURE END LIST*
D10*
X207596000Y-62103000D03*
D11*
X192356000Y-62103000D03*
D12*
X140286000Y-121031000D03*
X142826000Y-121031000D03*
D13*
X145366000Y-121031000D03*
D12*
X146128000Y-62103000D03*
X143588000Y-62103000D03*
D13*
X141048000Y-62103000D03*
D14*
X77579000Y-45289000D03*
X77579000Y-137591000D03*
X327961000Y-137591000D03*
X327961000Y-45289000D03*
D15*
X122506000Y-93980000D03*
X122506000Y-91440000D03*
G04 #@! TA.AperFunction,ComponentPad*
D16*
G36*
X123380505Y-88031204D02*
G01*
X123404773Y-88034804D01*
X123428572Y-88040765D01*
X123451671Y-88049030D01*
X123473850Y-88059520D01*
X123494893Y-88072132D01*
X123514599Y-88086747D01*
X123532777Y-88103223D01*
X123549253Y-88121401D01*
X123563868Y-88141107D01*
X123576480Y-88162150D01*
X123586970Y-88184329D01*
X123595235Y-88207428D01*
X123601196Y-88231227D01*
X123604796Y-88255495D01*
X123606000Y-88279999D01*
X123606000Y-89520001D01*
X123604796Y-89544505D01*
X123601196Y-89568773D01*
X123595235Y-89592572D01*
X123586970Y-89615671D01*
X123576480Y-89637850D01*
X123563868Y-89658893D01*
X123549253Y-89678599D01*
X123532777Y-89696777D01*
X123514599Y-89713253D01*
X123494893Y-89727868D01*
X123473850Y-89740480D01*
X123451671Y-89750970D01*
X123428572Y-89759235D01*
X123404773Y-89765196D01*
X123380505Y-89768796D01*
X123356001Y-89770000D01*
X121655999Y-89770000D01*
X121631495Y-89768796D01*
X121607227Y-89765196D01*
X121583428Y-89759235D01*
X121560329Y-89750970D01*
X121538150Y-89740480D01*
X121517107Y-89727868D01*
X121497401Y-89713253D01*
X121479223Y-89696777D01*
X121462747Y-89678599D01*
X121448132Y-89658893D01*
X121435520Y-89637850D01*
X121425030Y-89615671D01*
X121416765Y-89592572D01*
X121410804Y-89568773D01*
X121407204Y-89544505D01*
X121406000Y-89520001D01*
X121406000Y-88279999D01*
X121407204Y-88255495D01*
X121410804Y-88231227D01*
X121416765Y-88207428D01*
X121425030Y-88184329D01*
X121435520Y-88162150D01*
X121448132Y-88141107D01*
X121462747Y-88121401D01*
X121479223Y-88103223D01*
X121497401Y-88086747D01*
X121517107Y-88072132D01*
X121538150Y-88059520D01*
X121560329Y-88049030D01*
X121583428Y-88040765D01*
X121607227Y-88034804D01*
X121631495Y-88031204D01*
X121655999Y-88030000D01*
X123356001Y-88030000D01*
X123380505Y-88031204D01*
G37*
G04 #@! TD.AperFunction*
D17*
X249252000Y-115189000D03*
X227252000Y-115189000D03*
X247728000Y-67564000D03*
X225728000Y-67564000D03*
D18*
X235917000Y-89027000D03*
X230917000Y-89027000D03*
X235917000Y-94027000D03*
X230917000Y-94027000D03*
X251458000Y-78979999D03*
X246458000Y-78979999D03*
X251458000Y-83980000D03*
X246458000Y-83980000D03*
X251458000Y-88980000D03*
X246458000Y-88980000D03*
X251458000Y-93980000D03*
X246458000Y-93980000D03*
X251458000Y-98980000D03*
X246458000Y-98980000D03*
X251458000Y-103980000D03*
X246458000Y-103980000D03*
D14*
X220327000Y-45288000D03*
X130984000Y-45288000D03*
X220327000Y-137592000D03*
X130984000Y-137592000D03*
D19*
X196950000Y-112522000D03*
X202400000Y-112522000D03*
D20*
X207850000Y-112522000D03*
D19*
X207828000Y-70358000D03*
X202378000Y-70358000D03*
D20*
X196928000Y-70358000D03*
D19*
X171550000Y-112522000D03*
X177000000Y-112522000D03*
D20*
X182450000Y-112522000D03*
D19*
X182428000Y-70358000D03*
X176978000Y-70358000D03*
D20*
X171528000Y-70358000D03*
D21*
X119839000Y-98552000D03*
X122379000Y-101092000D03*
X124919000Y-98552000D03*
D22*
X76659000Y-71374000D03*
D23*
X76659000Y-61214000D03*
D10*
X218010000Y-81534000D03*
D11*
X218010000Y-101854000D03*
D10*
X197000000Y-81020000D03*
D11*
X197000000Y-101340000D03*
D10*
X207800000Y-81020000D03*
D11*
X207800000Y-101340000D03*
D10*
X174700000Y-81020000D03*
D11*
X174700000Y-101340000D03*
D10*
X186400000Y-81020000D03*
D11*
X186400000Y-101340000D03*
D10*
X207850000Y-120904000D03*
D11*
X192610000Y-120904000D03*
D10*
X182450000Y-120904000D03*
D11*
X167210000Y-120904000D03*
D10*
X182069000Y-62103000D03*
D11*
X166829000Y-62103000D03*
D22*
X162511000Y-94615000D03*
D23*
X162511000Y-104775000D03*
D22*
X162511000Y-77978000D03*
D23*
X162511000Y-88138000D03*
D22*
X167591000Y-94615000D03*
D23*
X167591000Y-104775000D03*
D22*
X167591000Y-88138000D03*
D23*
X167591000Y-77978000D03*
D22*
X151589000Y-96647000D03*
D23*
X151589000Y-86487000D03*
D22*
X155780000Y-115951000D03*
D23*
X145620000Y-115951000D03*
D22*
X149176000Y-66802000D03*
D23*
X159336000Y-66802000D03*
D22*
X134825000Y-126492000D03*
D23*
X124665000Y-126492000D03*
D22*
X124665000Y-56388000D03*
D23*
X134825000Y-56388000D03*
D10*
X159209000Y-110490000D03*
D11*
X143969000Y-110490000D03*
D10*
X144096000Y-72644000D03*
D11*
X159336000Y-72644000D03*
D22*
X141175000Y-104394000D03*
D23*
X141175000Y-94234000D03*
D22*
X141175000Y-88646000D03*
D23*
X141175000Y-78486000D03*
D22*
X116664000Y-104521000D03*
D23*
X116664000Y-114681000D03*
D22*
X111838000Y-104521000D03*
D23*
X111838000Y-114681000D03*
D22*
X134825000Y-114935000D03*
D23*
X124665000Y-114935000D03*
D22*
X134825000Y-66167000D03*
D23*
X124665000Y-66167000D03*
D22*
X134825000Y-120142000D03*
D23*
X124665000Y-120142000D03*
D22*
X134825000Y-61214000D03*
D23*
X124665000Y-61214000D03*
D22*
X128475000Y-70866000D03*
D23*
X138635000Y-70866000D03*
D22*
X101297000Y-104013000D03*
D23*
X101297000Y-93853000D03*
D22*
X101297000Y-89027000D03*
D23*
X101297000Y-78867000D03*
D22*
X120093000Y-74549000D03*
D23*
X130253000Y-74549000D03*
D22*
X106885000Y-114681000D03*
D23*
X106885000Y-104521000D03*
D22*
X105869000Y-77724000D03*
D23*
X105869000Y-67564000D03*
D22*
X82501000Y-122174000D03*
D23*
X82501000Y-132334000D03*
D22*
X83136000Y-61595000D03*
D23*
X83136000Y-51435000D03*
D22*
X87200000Y-122174000D03*
D23*
X87200000Y-132334000D03*
D22*
X87962000Y-61595000D03*
D23*
X87962000Y-51435000D03*
D22*
X91899000Y-93853000D03*
D23*
X91899000Y-104013000D03*
D22*
X87200000Y-93853000D03*
D23*
X87200000Y-104013000D03*
D22*
X91899000Y-89027000D03*
D23*
X91899000Y-78867000D03*
D22*
X87200000Y-89027000D03*
D23*
X87200000Y-78867000D03*
D22*
X96598000Y-93853000D03*
D23*
X96598000Y-104013000D03*
D22*
X82501000Y-93853000D03*
D23*
X82501000Y-104013000D03*
D22*
X96598000Y-89027000D03*
D23*
X96598000Y-78867000D03*
D22*
X82501000Y-89027000D03*
D23*
X82501000Y-78867000D03*
D22*
X76659000Y-75057000D03*
D23*
X76659000Y-85217000D03*
D22*
X76659000Y-107950000D03*
D23*
X76659000Y-97790000D03*
D24*
X154510000Y-120904000D03*
X157050000Y-120904000D03*
D25*
X159590000Y-120904000D03*
D24*
X159590000Y-61976000D03*
X157050000Y-61976000D03*
D25*
X154510000Y-61976000D03*
D12*
X140286000Y-126492000D03*
X142826000Y-126492000D03*
D13*
X145366000Y-126492000D03*
D12*
X146128000Y-56388000D03*
X143588000Y-56388000D03*
D13*
X141048000Y-56388000D03*
D26*
X129237000Y-97155000D03*
D27*
X129237000Y-99695000D03*
X129237000Y-98425000D03*
D26*
X129999000Y-85598000D03*
D27*
X129999000Y-83058000D03*
X129999000Y-84328000D03*
D28*
X91899000Y-116586000D03*
D29*
X94439000Y-116586000D03*
X93169000Y-116586000D03*
D28*
X91899000Y-66929000D03*
D29*
X94439000Y-66929000D03*
X93169000Y-66929000D03*
D28*
X87200000Y-115824000D03*
D29*
X84660000Y-115824000D03*
X85930000Y-115824000D03*
D28*
X87200000Y-66167000D03*
D29*
X84660000Y-66167000D03*
X85930000Y-66167000D03*
D28*
X94439000Y-109347000D03*
D29*
X91899000Y-109347000D03*
X93169000Y-109347000D03*
D28*
X84660000Y-110109000D03*
D29*
X87200000Y-110109000D03*
X85930000Y-110109000D03*
D28*
X94439000Y-72644000D03*
D29*
X91899000Y-72644000D03*
X93169000Y-72644000D03*
D28*
X84660000Y-73406000D03*
D29*
X87200000Y-73406000D03*
X85930000Y-73406000D03*
D15*
X76659000Y-88900000D03*
X76659000Y-91440000D03*
G04 #@! TA.AperFunction,ComponentPad*
D16*
G36*
X77533505Y-93111204D02*
G01*
X77557773Y-93114804D01*
X77581572Y-93120765D01*
X77604671Y-93129030D01*
X77626850Y-93139520D01*
X77647893Y-93152132D01*
X77667599Y-93166747D01*
X77685777Y-93183223D01*
X77702253Y-93201401D01*
X77716868Y-93221107D01*
X77729480Y-93242150D01*
X77739970Y-93264329D01*
X77748235Y-93287428D01*
X77754196Y-93311227D01*
X77757796Y-93335495D01*
X77759000Y-93359999D01*
X77759000Y-94600001D01*
X77757796Y-94624505D01*
X77754196Y-94648773D01*
X77748235Y-94672572D01*
X77739970Y-94695671D01*
X77729480Y-94717850D01*
X77716868Y-94738893D01*
X77702253Y-94758599D01*
X77685777Y-94776777D01*
X77667599Y-94793253D01*
X77647893Y-94807868D01*
X77626850Y-94820480D01*
X77604671Y-94830970D01*
X77581572Y-94839235D01*
X77557773Y-94845196D01*
X77533505Y-94848796D01*
X77509001Y-94850000D01*
X75808999Y-94850000D01*
X75784495Y-94848796D01*
X75760227Y-94845196D01*
X75736428Y-94839235D01*
X75713329Y-94830970D01*
X75691150Y-94820480D01*
X75670107Y-94807868D01*
X75650401Y-94793253D01*
X75632223Y-94776777D01*
X75615747Y-94758599D01*
X75601132Y-94738893D01*
X75588520Y-94717850D01*
X75578030Y-94695671D01*
X75569765Y-94672572D01*
X75563804Y-94648773D01*
X75560204Y-94624505D01*
X75559000Y-94600001D01*
X75559000Y-93359999D01*
X75560204Y-93335495D01*
X75563804Y-93311227D01*
X75569765Y-93287428D01*
X75578030Y-93264329D01*
X75588520Y-93242150D01*
X75601132Y-93221107D01*
X75615747Y-93201401D01*
X75632223Y-93183223D01*
X75650401Y-93166747D01*
X75670107Y-93152132D01*
X75691150Y-93139520D01*
X75713329Y-93129030D01*
X75736428Y-93120765D01*
X75760227Y-93114804D01*
X75784495Y-93111204D01*
X75808999Y-93110000D01*
X77509001Y-93110000D01*
X77533505Y-93111204D01*
G37*
G04 #@! TD.AperFunction*
D30*
X99011000Y-129540000D03*
D31*
X99011000Y-139700000D03*
D30*
X93486500Y-129540000D03*
D31*
X93486500Y-139700000D03*
D30*
X99011000Y-43307000D03*
D31*
X99011000Y-53467000D03*
D30*
X93423000Y-43180000D03*
D31*
X93423000Y-53340000D03*
D30*
X223471000Y-95631000D03*
D31*
X223471000Y-105791000D03*
D30*
X223471000Y-76581000D03*
D31*
X223471000Y-86741000D03*
D22*
X145747000Y-94234000D03*
D32*
X145747000Y-104394000D03*
D22*
X145747000Y-78486000D03*
D32*
X145747000Y-88646000D03*
D22*
X137492000Y-107061000D03*
D32*
X127332000Y-107061000D03*
D22*
X130888000Y-79248000D03*
D32*
X120728000Y-79248000D03*
D22*
X159209000Y-104013000D03*
D32*
X149049000Y-104013000D03*
D22*
X149049000Y-78867000D03*
D32*
X159209000Y-78867000D03*
D33*
X109171000Y-88185000D03*
D34*
X109171000Y-83185000D03*
D33*
X109171000Y-94695000D03*
D34*
X109171000Y-99695000D03*
D33*
X165940000Y-108451000D03*
X165940000Y-115951000D03*
D35*
X275922000Y-77564000D03*
D36*
X275922000Y-67564000D03*
D35*
X313514000Y-115156000D03*
D36*
X313514000Y-105156000D03*
D33*
X191340000Y-115831000D03*
X191340000Y-108331000D03*
X213438000Y-76461000D03*
X213438000Y-68961000D03*
D35*
X275922000Y-115156000D03*
D36*
X275922000Y-105156000D03*
D35*
X313514000Y-77564000D03*
D36*
X313514000Y-67564000D03*
D23*
X157304000Y-94615000D03*
X157304000Y-99615000D03*
X157304000Y-83138000D03*
X157304000Y-88138000D03*
X135841000Y-97155000D03*
X135841000Y-102155000D03*
X135841000Y-80598000D03*
X135841000Y-85598000D03*
D33*
X106504000Y-139573000D03*
X106504000Y-132073000D03*
X106250000Y-50673000D03*
X106250000Y-43173000D03*
D11*
X117807000Y-139580000D03*
D37*
X117807000Y-132080000D03*
D11*
X117807000Y-50680000D03*
D37*
X117807000Y-43180000D03*
D23*
X137826000Y-115951000D03*
X142826000Y-115951000D03*
X146429000Y-66802000D03*
X141429000Y-66802000D03*
X115822000Y-74549000D03*
X110822000Y-74549000D03*
X116283000Y-83232000D03*
X116283000Y-78232000D03*
X116283000Y-88980000D03*
X116283000Y-93980000D03*
D33*
X188038000Y-76461000D03*
X188038000Y-68961000D03*
D11*
X111584000Y-119500000D03*
D37*
X111584000Y-127000000D03*
D11*
X111584000Y-55873000D03*
D37*
X111584000Y-63373000D03*
D33*
X100535000Y-118230000D03*
X100535000Y-125730000D03*
X100154000Y-65913000D03*
X100154000Y-58413000D03*
D23*
X76659000Y-116125000D03*
X76659000Y-111125000D03*
D38*
X216867000Y-116840000D03*
X216867000Y-117983000D03*
X216867000Y-65786000D03*
D39*
X248958000Y-91527000D03*
D40*
X207850000Y-128270000D03*
X207723000Y-55753000D03*
X159600000Y-126492000D03*
D41*
X77675000Y-88900000D02*
X80215000Y-91440000D01*
X76659000Y-88900000D02*
X77675000Y-88900000D01*
X77675000Y-93980000D02*
X80215000Y-91440000D01*
X76659000Y-93980000D02*
X77675000Y-93980000D01*
X111584000Y-91440000D02*
X111584000Y-91440000D01*
D42*
X113823000Y-91440000D02*
X116283000Y-88980000D01*
X111584000Y-91440000D02*
X113823000Y-91440000D01*
X111584000Y-85725000D02*
X111584000Y-91440000D01*
X109171000Y-83185000D02*
X111584000Y-85598000D01*
X111584000Y-85598000D02*
X111584000Y-85725000D01*
X112473000Y-90551000D02*
X111584000Y-91440000D01*
X112727000Y-90297000D02*
X112473000Y-90551000D01*
X116283000Y-83232000D02*
X116236000Y-83232000D01*
X112727000Y-86741000D02*
X112727000Y-90297000D01*
X116236000Y-83232000D02*
X112727000Y-86741000D01*
D41*
X80215000Y-74930000D02*
X76659000Y-71374000D01*
X80215000Y-91440000D02*
X80215000Y-74930000D01*
X80215000Y-92005685D02*
X80215000Y-91440000D01*
X76659000Y-107950000D02*
X80215000Y-104394000D01*
X80215000Y-104394000D02*
X80215000Y-92005685D01*
D43*
X80780685Y-91440000D02*
X111584000Y-91440000D01*
X80215000Y-91440000D02*
X80780685Y-91440000D01*
D44*
X264271000Y-77564000D02*
X275922000Y-77564000D01*
X250649000Y-91186000D02*
X264271000Y-77564000D01*
X250649000Y-91313000D02*
X250649000Y-91186000D01*
X284210000Y-77564000D02*
X278462000Y-83312000D01*
X313514000Y-77564000D02*
X284210000Y-77564000D01*
X266270000Y-83312000D02*
X261063000Y-88519000D01*
X278462000Y-83312000D02*
X266270000Y-83312000D01*
X261063000Y-88519000D02*
X253443000Y-88519000D01*
X284685000Y-105156000D02*
X313514000Y-105156000D01*
X278716000Y-99187000D02*
X284685000Y-105156000D01*
X261317000Y-94361000D02*
X266143000Y-99187000D01*
X263984000Y-105156000D02*
X250649000Y-91821000D01*
X266143000Y-99187000D02*
X278716000Y-99187000D01*
X253697000Y-94361000D02*
X261317000Y-94361000D01*
X275922000Y-105156000D02*
X263984000Y-105156000D01*
X250649000Y-91821000D02*
X250649000Y-91313000D01*
D42*
X192349000Y-116840000D02*
X191340000Y-115831000D01*
X216867000Y-116840000D02*
X192349000Y-116840000D01*
X191213000Y-65786000D02*
X216867000Y-65786000D01*
X188038000Y-68961000D02*
X191213000Y-65786000D01*
X167972000Y-117983000D02*
X216740000Y-117983000D01*
X165940000Y-115951000D02*
X167972000Y-117983000D01*
D44*
X250649000Y-91186000D02*
X250649000Y-91186000D01*
D43*
X113616000Y-136271000D02*
X117807000Y-132080000D01*
X99011000Y-139700000D02*
X102440000Y-136271000D01*
X102440000Y-136271000D02*
X113616000Y-136271000D01*
D45*
X117807000Y-50680000D02*
X117927000Y-50680000D01*
D43*
X100110999Y-44406999D02*
X99011000Y-43307000D01*
X117807000Y-50680000D02*
X116607001Y-49480001D01*
X116607001Y-49473001D02*
X113997000Y-46863000D01*
X113997000Y-46863000D02*
X102567000Y-46863000D01*
X116607001Y-49480001D02*
X116607001Y-49473001D01*
X102567000Y-46863000D02*
X100110999Y-44406999D01*
D45*
X245522000Y-88980000D02*
X246458000Y-88980000D01*
X241759000Y-85217000D02*
X245522000Y-88980000D01*
X117807000Y-50680000D02*
X117814000Y-50680000D01*
X235536000Y-51435000D02*
X241759000Y-57658000D01*
X118569000Y-51435000D02*
X235536000Y-51435000D01*
X117814000Y-50680000D02*
X118569000Y-51435000D01*
X241759000Y-57658000D02*
X241759000Y-85217000D01*
D42*
X245950000Y-90551000D02*
X248109000Y-90551000D01*
X245061000Y-89662000D02*
X245950000Y-90551000D01*
X114886000Y-50673000D02*
X117172000Y-52959000D01*
X244045000Y-89662000D02*
X245061000Y-89662000D01*
X240235000Y-58293000D02*
X240235000Y-85852000D01*
X106250000Y-50673000D02*
X114886000Y-50673000D01*
X240235000Y-85852000D02*
X244045000Y-89662000D01*
X117172000Y-52959000D02*
X234901000Y-52959000D01*
X234901000Y-52959000D02*
X240235000Y-58293000D01*
D45*
X246458000Y-93980000D02*
X246204000Y-93980000D01*
X243029000Y-123063000D02*
X233504000Y-132588000D01*
X118315000Y-132588000D02*
X117807000Y-132080000D01*
X233504000Y-132588000D02*
X118315000Y-132588000D01*
X246204000Y-93980000D02*
X243029000Y-97155000D01*
X243029000Y-97155000D02*
X243029000Y-123063000D01*
D42*
X114385000Y-132073000D02*
X106504000Y-132073000D01*
X116156000Y-130302000D02*
X114385000Y-132073000D01*
X119585000Y-130302000D02*
X116156000Y-130302000D01*
X120220000Y-130937000D02*
X119585000Y-130302000D01*
X245823000Y-93345000D02*
X244553000Y-93345000D01*
X246458000Y-93980000D02*
X245823000Y-93345000D01*
X232996000Y-130937000D02*
X120220000Y-130937000D01*
X244553000Y-93345000D02*
X241505000Y-96393000D01*
X241505000Y-96393000D02*
X241505000Y-122428000D01*
X241505000Y-122428000D02*
X232996000Y-130937000D01*
D41*
X243196000Y-91527000D02*
X248958000Y-91527000D01*
D42*
X246077000Y-92456000D02*
X246331000Y-92710000D01*
X240489000Y-96012000D02*
X244045000Y-92456000D01*
X115775000Y-129413000D02*
X120093000Y-129413000D01*
X232615000Y-129921000D02*
X240489000Y-122047000D01*
X107774000Y-131064000D02*
X114124000Y-131064000D01*
X100535000Y-125730000D02*
X102440000Y-125730000D01*
X102440000Y-125730000D02*
X107774000Y-131064000D01*
X120093000Y-129413000D02*
X120601000Y-129921000D01*
X114124000Y-131064000D02*
X115775000Y-129413000D01*
X120601000Y-129921000D02*
X232615000Y-129921000D01*
X240489000Y-122047000D02*
X240489000Y-96012000D01*
X244045000Y-92456000D02*
X246077000Y-92456000D01*
D43*
X239050000Y-121240000D02*
X232020000Y-128270000D01*
X239050000Y-95673000D02*
X239050000Y-121240000D01*
X232020000Y-128270000D02*
X207850000Y-128270000D01*
D41*
X243196000Y-91527000D02*
X242862000Y-91527000D01*
D43*
X242337000Y-91527000D02*
X248958000Y-91527000D01*
X237600000Y-86790000D02*
X242337000Y-91527000D01*
X237600000Y-59690000D02*
X237600000Y-86790000D01*
X207723000Y-55753000D02*
X233663000Y-55753000D01*
X233663000Y-55753000D02*
X237600000Y-59690000D01*
X239050000Y-94814000D02*
X242337000Y-91527000D01*
X239050000Y-95673000D02*
X239050000Y-94814000D01*
D42*
X243300000Y-90340000D02*
X243511000Y-90551000D01*
X109101000Y-51689000D02*
X114505000Y-51689000D01*
X116664000Y-53848000D02*
X234393000Y-53848000D01*
X243511000Y-90551000D02*
X245950000Y-90551000D01*
X102370000Y-58420000D02*
X109101000Y-51689000D01*
X100916000Y-58420000D02*
X102370000Y-58420000D01*
X100909000Y-58413000D02*
X100916000Y-58420000D01*
X100154000Y-58413000D02*
X100909000Y-58413000D01*
X114505000Y-51689000D02*
X116664000Y-53848000D01*
X234393000Y-53848000D02*
X239219000Y-58674000D01*
X239219000Y-58674000D02*
X239219000Y-86233000D01*
X239219000Y-86233000D02*
X243300000Y-90314000D01*
X243300000Y-90314000D02*
X243300000Y-90340000D01*
D41*
X246458000Y-87630000D02*
X246458000Y-88980000D01*
X243664000Y-84836000D02*
X246458000Y-87630000D01*
X243664000Y-56896000D02*
X243664000Y-84836000D01*
X236298000Y-49530000D02*
X243664000Y-56896000D01*
X76659000Y-53848000D02*
X89867000Y-40640000D01*
X119458000Y-40640000D02*
X128348000Y-49530000D01*
X76659000Y-61214000D02*
X76659000Y-53848000D01*
X89867000Y-40640000D02*
X119458000Y-40640000D01*
X128348000Y-49530000D02*
X236298000Y-49530000D01*
D43*
X213558000Y-76581000D02*
X213438000Y-76461000D01*
X223471000Y-76581000D02*
X213558000Y-76581000D01*
D44*
X225728000Y-67564000D02*
X222376000Y-67564000D01*
X222335000Y-67564000D02*
X213438000Y-76461000D01*
X222376000Y-67564000D02*
X222335000Y-67564000D01*
X213438000Y-76461000D02*
X202379000Y-76461000D01*
D46*
X176978000Y-70358000D02*
X176978000Y-72818000D01*
X202378000Y-76460000D02*
X202379000Y-76461000D01*
X202378000Y-70358000D02*
X202378000Y-76460000D01*
D44*
X176978000Y-72818000D02*
X180621000Y-76461000D01*
X202379000Y-76461000D02*
X180621000Y-76461000D01*
D41*
X105615000Y-99695000D02*
X101297000Y-104013000D01*
X109171000Y-99695000D02*
X105615000Y-99695000D01*
X116410000Y-78232000D02*
X120093000Y-74549000D01*
X116283000Y-78232000D02*
X116410000Y-78232000D01*
X114675000Y-79840000D02*
X116283000Y-78232000D01*
X101297000Y-78867000D02*
X102270000Y-79840000D01*
X102270000Y-79840000D02*
X114675000Y-79840000D01*
X146128000Y-64516000D02*
X146128000Y-62103000D01*
X141683000Y-68961000D02*
X146128000Y-64516000D01*
X91899000Y-69469000D02*
X93042000Y-70612000D01*
X127651998Y-68961000D02*
X141683000Y-68961000D01*
X91899000Y-66929000D02*
X91899000Y-69469000D01*
X93042000Y-70612000D02*
X126000998Y-70612000D01*
X126000998Y-70612000D02*
X127651998Y-68961000D01*
X111838000Y-102362000D02*
X111838000Y-104521000D01*
X118823000Y-95377000D02*
X111838000Y-102362000D01*
X122506000Y-88900000D02*
X120982000Y-88900000D01*
X118823000Y-91059000D02*
X118823000Y-95377000D01*
X120982000Y-88900000D02*
X118823000Y-91059000D01*
D42*
X143588000Y-64643000D02*
X141429000Y-66802000D01*
X143588000Y-62103000D02*
X143588000Y-64643000D01*
D43*
X143588000Y-62103000D02*
X143588000Y-56388000D01*
D42*
X137826000Y-115951000D02*
X137826000Y-118571000D01*
D41*
X94185000Y-111125000D02*
X91899000Y-113411000D01*
X136476000Y-111125000D02*
X94185000Y-111125000D01*
X91899000Y-113411000D02*
X91899000Y-116586000D01*
X140286000Y-114935000D02*
X136476000Y-111125000D01*
D42*
X137826000Y-118571000D02*
X140286000Y-121031000D01*
D41*
X140286000Y-121031000D02*
X140286000Y-114935000D01*
D43*
X142826000Y-121031000D02*
X142826000Y-115951000D01*
X163310999Y-87329001D02*
X164900000Y-85740000D01*
X163310999Y-87338001D02*
X163310999Y-87329001D01*
X162511000Y-88138000D02*
X163310999Y-87338001D01*
X203050000Y-85740000D02*
X164900000Y-85740000D01*
X207800000Y-81020000D02*
X207770000Y-81020000D01*
X207770000Y-81020000D02*
X203050000Y-85740000D01*
X164850000Y-96954000D02*
X162511000Y-94615000D01*
X164850000Y-96990000D02*
X164850000Y-96954000D01*
X197000000Y-101340000D02*
X192650000Y-96990000D01*
X192650000Y-96990000D02*
X164850000Y-96990000D01*
X215822000Y-105791000D02*
X215187000Y-106426000D01*
X223471000Y-105791000D02*
X215822000Y-105791000D01*
D44*
X223598000Y-115189000D02*
X227252000Y-115189000D01*
X213692000Y-106426000D02*
X214835000Y-106426000D01*
X214835000Y-106426000D02*
X223598000Y-115189000D01*
X197055000Y-106426000D02*
X179614000Y-106426000D01*
X179614000Y-106426000D02*
X177000000Y-109040000D01*
D41*
X176179000Y-108451000D02*
X177000000Y-109272000D01*
X165940000Y-108451000D02*
X176179000Y-108451000D01*
D44*
X202314000Y-106426000D02*
X213692000Y-106426000D01*
X197055000Y-106426000D02*
X202314000Y-106426000D01*
D46*
X202400000Y-106512000D02*
X202314000Y-106426000D01*
X202400000Y-112522000D02*
X202400000Y-106512000D01*
X179614000Y-106426000D02*
X179214000Y-106426000D01*
X177000000Y-112522000D02*
X177000000Y-109272000D01*
D41*
X129237000Y-105156000D02*
X127332000Y-107061000D01*
X129237000Y-99695000D02*
X129237000Y-105156000D01*
D43*
X99011000Y-50867000D02*
X99011000Y-53467000D01*
X98817000Y-50673000D02*
X99011000Y-50867000D01*
X98757000Y-50673000D02*
X98817000Y-50673000D01*
X93423000Y-45339000D02*
X98757000Y-50673000D01*
X93423000Y-43180000D02*
X93423000Y-45339000D01*
X93423000Y-137922000D02*
X93423000Y-139573000D01*
X99011000Y-129540000D02*
X99011000Y-132334000D01*
X99011000Y-132334000D02*
X93423000Y-137922000D01*
D41*
X121490000Y-69342000D02*
X124665000Y-66167000D01*
X93169000Y-67310000D02*
X93213990Y-67354990D01*
X93169000Y-66929000D02*
X93169000Y-67310000D01*
X93213990Y-67354990D02*
X93213990Y-68497990D01*
X93213990Y-68497990D02*
X94058000Y-69342000D01*
X94058000Y-69342000D02*
X121490000Y-69342000D01*
X93169000Y-114836000D02*
X95483000Y-112522000D01*
X93169000Y-116586000D02*
X93169000Y-114836000D01*
X122252000Y-112522000D02*
X124665000Y-114935000D01*
X95483000Y-112522000D02*
X122252000Y-112522000D01*
D43*
X145366000Y-126492000D02*
X159600000Y-126492000D01*
X159600000Y-126492000D02*
X159600000Y-126492000D01*
X159600000Y-126492000D02*
X159600000Y-126492000D01*
D42*
X87200000Y-89027000D02*
X91899000Y-89027000D01*
D41*
X150900000Y-68526000D02*
X149176000Y-66802000D01*
X150900000Y-81715000D02*
X150900000Y-68526000D01*
X150954000Y-110617000D02*
X150954000Y-101346000D01*
X150954000Y-101346000D02*
X149049000Y-99441000D01*
X149049000Y-99441000D02*
X149049000Y-83566000D01*
X145620000Y-115951000D02*
X150954000Y-110617000D01*
X149049000Y-83566000D02*
X150900000Y-81715000D01*
X124919000Y-103251000D02*
X124919000Y-98552000D01*
X116664000Y-104521000D02*
X123649000Y-104521000D01*
X123649000Y-104521000D02*
X124919000Y-103251000D01*
D43*
X166702000Y-61976000D02*
X159590000Y-61976000D01*
X166829000Y-62103000D02*
X166702000Y-61976000D01*
X187276000Y-57023000D02*
X192356000Y-62103000D01*
X159590000Y-61976000D02*
X164543000Y-57023000D01*
X164543000Y-57023000D02*
X187276000Y-57023000D01*
D41*
X159590000Y-62350000D02*
X159590000Y-61976000D01*
X153700000Y-68240000D02*
X159590000Y-62350000D01*
X151589000Y-86487000D02*
X153700000Y-84376000D01*
X153700000Y-84376000D02*
X153700000Y-68240000D01*
D43*
X154500000Y-120914000D02*
X154510000Y-120904000D01*
X154500000Y-122240000D02*
X154500000Y-120914000D01*
X156466000Y-124206000D02*
X154500000Y-122240000D01*
X192610000Y-120904000D02*
X189308000Y-124206000D01*
D41*
X154510000Y-120904000D02*
X153748000Y-120142000D01*
X153748000Y-98806000D02*
X151589000Y-96647000D01*
X153748000Y-120142000D02*
X153748000Y-98806000D01*
D43*
X160634000Y-124206000D02*
X156466000Y-124206000D01*
X189308000Y-124206000D02*
X160634000Y-124206000D01*
X167210000Y-120904000D02*
X167174000Y-120940000D01*
X160634000Y-123906000D02*
X160634000Y-124206000D01*
X167210000Y-120904000D02*
X163636000Y-120904000D01*
X163636000Y-120904000D02*
X160634000Y-123906000D01*
D47*
G36*
X252935000Y-87942814D02*
G01*
X252935000Y-94965602D01*
X252509394Y-95391208D01*
X245486606Y-95391208D01*
X245061000Y-94965602D01*
X245061000Y-87942814D01*
X245486606Y-87517208D01*
X252509394Y-87517208D01*
X252935000Y-87942814D01*
G37*
X252935000Y-87942814D02*
X252935000Y-94965602D01*
X252509394Y-95391208D01*
X245486606Y-95391208D01*
X245061000Y-94965602D01*
X245061000Y-87942814D01*
X245486606Y-87517208D01*
X252509394Y-87517208D01*
X252935000Y-87942814D01*
M02*
