M48
; DRILL file {KiCad (5.1.5)-3} date 07.05.2021 14:04:14
; FORMAT={-:-/ absolute / inch / decimal}
; #@! TF.CreationDate,2021-05-07T14:04:14+02:00
; #@! TF.GenerationSoftware,Kicad,Pcbnew,(5.1.5)-3
FMAT,2
INCH
T1C0.0157
T2C0.0295
T3C0.0315
T4C0.0394
T5C0.0433
T6C0.0440
T7C0.0472
T8C0.0591
T9C0.0787
T10C0.1260
T11C0.1260
T12C0.1299
T13C0.1378
%
G90
G05
T1
X8.5381Y-2.59
X8.5381Y-4.6
X8.5381Y-4.645
T2
X6.2835Y-4.98
X8.1781Y-2.195
X8.1831Y-5.05
X3.6181Y-2.86
X3.6681Y-2.86
X3.7181Y-2.86
X3.6181Y-2.635
X3.6681Y-2.635
X3.7181Y-2.635
X3.3331Y-4.56
X3.3831Y-4.56
X3.4331Y-4.56
X5.0881Y-3.825
X5.0881Y-3.875
X5.0881Y-3.925
X3.3331Y-4.335
X3.3831Y-4.335
X3.4331Y-4.335
X3.6181Y-4.59
X3.6681Y-4.59
X3.7181Y-4.59
X3.6181Y-4.305
X3.6681Y-4.305
X3.7181Y-4.305
X5.1181Y-3.27
X5.1181Y-3.32
X5.1181Y-3.37
X3.3331Y-2.89
X3.3831Y-2.89
X3.4331Y-2.89
X3.3331Y-2.605
X3.3831Y-2.605
X3.4331Y-2.605
T3
X3.0181Y-2.41
X3.0181Y-2.81
X5.5681Y-2.63
X5.7649Y-2.63
X4.2081Y-4.115
X4.2081Y-4.515
X3.9881Y-3.105
X3.9881Y-3.505
X3.4331Y-3.105
X3.4331Y-3.505
X5.7381Y-3.71
X5.7381Y-4.11
X5.8681Y-3.105
X6.2681Y-3.105
X4.9081Y-4.525
X5.3081Y-4.525
X5.9681Y-3.405
X5.9681Y-3.805
X5.4262Y-4.565
X5.6231Y-4.565
X4.1681Y-2.66
X4.1681Y-3.06
X3.9881Y-3.695
X3.9881Y-4.095
X5.3481Y-3.825
X5.3481Y-4.0219
X3.4331Y-4.81
X3.4331Y-5.21
X4.9081Y-2.22
X5.3081Y-2.22
X4.7531Y-3.12
X5.1531Y-3.12
X4.9081Y-2.605
X5.3081Y-2.605
X4.5931Y-4.115
X4.5931Y-4.515
X5.0581Y-2.79
X5.4581Y-2.79
X6.1931Y-3.725
X6.1931Y-3.9219
X3.8031Y-3.105
X3.8031Y-3.505
X4.5781Y-3.5031
X4.5781Y-3.7
X3.6181Y-3.695
X3.6181Y-4.095
X5.8731Y-2.63
X6.2731Y-2.63
X5.0131Y-4.215
X5.4131Y-4.215
X4.9081Y-4.98
X5.3081Y-4.98
X4.9081Y-4.73
X5.3081Y-4.73
X4.7181Y-3.88
X4.8181Y-3.98
X4.9181Y-3.88
X3.4331Y-3.695
X3.4331Y-4.095
X5.3481Y-3.1731
X5.3481Y-3.37
X3.2481Y-3.105
X3.2481Y-3.505
X3.6181Y-3.105
X3.6181Y-3.505
X4.4031Y-4.115
X4.4031Y-4.515
X5.8681Y-4.095
X6.2681Y-4.095
X3.0181Y-3.85
X3.0181Y-4.25
X5.5581Y-3.09
X5.5581Y-3.49
X6.5981Y-3.07
X6.5981Y-3.47
X3.4631Y-2.025
X3.4631Y-2.425
X3.2481Y-3.695
X3.2481Y-4.095
X5.5581Y-3.71
X5.5581Y-4.11
X5.7381Y-3.09
X5.7381Y-3.49
X4.9081Y-2.41
X5.3081Y-2.41
X6.3981Y-3.07
X6.3981Y-3.47
X3.0181Y-4.375
X3.0181Y-4.5719
X6.1931Y-3.2731
X6.1931Y-3.47
X3.2731Y-2.025
X3.2731Y-2.425
X4.5781Y-3.08
X4.5781Y-3.2769
X4.7281Y-2.935
X5.1281Y-2.935
X6.5981Y-3.725
X6.5981Y-4.125
X6.3981Y-3.725
X6.3981Y-4.125
X4.3631Y-2.935
X4.5599Y-2.935
X3.2481Y-4.81
X3.2481Y-5.21
X3.8031Y-3.695
X3.8031Y-4.095
X3.0181Y-2.955
X3.0181Y-3.355
X5.7331Y-4.565
X6.1331Y-4.565
T4
X9.8015Y-3.6034
X4.1831Y-1.6997
X4.1831Y-1.995
X5.5231Y-4.98
X5.6231Y-4.98
X5.7231Y-4.98
X5.5531Y-2.445
X5.6531Y-2.445
X5.7531Y-2.445
X6.5331Y-4.2697
X6.5331Y-4.565
X4.2981Y-3.275
X4.2981Y-3.4719
X3.9431Y-2.2997
X3.9431Y-2.595
X7.4031Y-2.715
X7.4031Y-3.0103
X4.2981Y-3.7281
X4.2981Y-3.925
X7.5331Y-4.265
X7.5331Y-4.5603
X3.9581Y-4.6547
X3.9581Y-4.95
X5.5531Y-2.22
X5.6531Y-2.22
X5.7531Y-2.22
X4.1931Y-5.1997
X4.1931Y-5.495
X5.5231Y-4.765
X5.6231Y-4.765
X5.7231Y-4.765
X8.4031Y-2.715
X8.4031Y-3.0103
T5
X3.8981Y-1.705
X3.8981Y-2.105
X3.8981Y-5.1
X3.8981Y-5.5
X3.6781Y-1.7
X3.6781Y-2.1
X8.7981Y-3.765
X8.7981Y-4.165
X6.0831Y-4.76
X6.1831Y-4.76
X6.2831Y-4.76
X6.0831Y-2.44
X6.1831Y-2.44
X6.2831Y-2.44
X8.7981Y-3.015
X8.7981Y-3.415
X3.6806Y-5.1
X3.6806Y-5.5
T6
X9.7031Y-3.1094
X9.7031Y-3.3063
X9.7031Y-3.5031
X9.7031Y-3.7
X9.7031Y-3.8969
X9.7031Y-4.0937
X9.8999Y-3.1094
X9.8999Y-3.3063
X9.8999Y-3.5031
X9.8999Y-3.7
X9.8999Y-3.8969
X9.8999Y-4.0937
X9.0912Y-3.505
X9.0912Y-3.7019
X9.2881Y-3.505
X9.2881Y-3.7019
T7
X4.6381Y-5.2
X4.6381Y-5.4953
X7.5731Y-2.445
X8.1731Y-2.445
X8.1811Y-3.1898
X8.1811Y-3.9898
X3.0181Y-3.5
X3.0181Y-3.6
X3.0181Y-3.7
X4.3931Y-4.7047
X4.3931Y-5.0
X6.5681Y-2.445
X7.1681Y-2.445
X5.6681Y-4.35
X6.2681Y-4.35
X6.5831Y-4.76
X7.1831Y-4.76
X6.878Y-3.1898
X6.878Y-3.9898
X5.6731Y-2.86
X6.2731Y-2.86
X7.5831Y-4.76
X8.1831Y-4.76
X4.6381Y-1.7
X4.6381Y-1.9953
X7.3386Y-3.1898
X7.3386Y-3.9898
X4.3931Y-2.1997
X4.3931Y-2.495
X4.8231Y-3.5
X4.8231Y-3.6
X4.8231Y-3.7
X8.5831Y-3.21
X8.5831Y-4.01
X7.7559Y-3.1898
X7.7559Y-3.9898
T8
X7.7531Y-2.77
X7.9676Y-2.77
X8.1822Y-2.77
X8.9469Y-4.535
X9.8131Y-4.535
X6.7531Y-2.77
X6.9676Y-2.77
X7.1822Y-2.77
X8.8869Y-2.66
X9.7531Y-2.66
X7.7539Y-4.43
X7.9685Y-4.43
X8.1831Y-4.43
X6.7539Y-4.43
X6.9685Y-4.43
X7.1831Y-4.43
T9
X10.8631Y-2.66
X10.8631Y-3.0537
X12.3431Y-4.14
X12.3431Y-4.5337
X12.3431Y-2.66
X12.3431Y-3.0537
X10.8631Y-4.14
X10.8631Y-4.5337
T10
X3.0543Y-1.783
X5.1569Y-1.783
X8.6743Y-1.783
X12.9119Y-1.783
X5.1569Y-5.417
X3.0543Y-5.417
X8.6743Y-5.417
X12.9119Y-5.417
T11
X5.6531Y-1.783
X5.6231Y-5.417
T12
X6.9685Y-5.4174
X7.9676Y-1.7826
X6.9676Y-1.7826
X7.9685Y-5.4174
T13
X6.1831Y-5.4159
X6.1831Y-1.7841
T0
M30
